#!OML:ASF F:\VICON\USERDATA\INSTALL\rory3\rory3.ASF
:FULLY-SPECIFIED
:DEGREES
52
root 0.6975950571967888 17.80758943995391 31.176058805229857 -2.1020882298103167 0.23580136912543148 3.8392950236364203
lfemur 8.999348241389672 -2.704041221995795 -29.747464248335312
ltibia 14.634836780421853
lfoot -18.419806654102654 4.205840982484328
ltoes 0.44150129617387446
rfemur -33.11075804283073 2.097808338673642 15.665771029160325
rtibia 36.30734346365593
rfoot -9.361026125765868 -16.138686713765466
rtoes 0.3027312340147579
lowerback 9.816146779936071 -0.7772755789119375 -4.954206755597691
upperback 0.609345010588423 -1.5886454716793037 0.7071444900181507
thorax -4.801873119171194 -0.6652767391341988 3.611078279301288
lowerneck -16.779038326823507 -2.6964345302749635 -3.0101878584610313
upperneck 20.18922982827782 -3.4509674104988632 2.0227505478177115
head 9.145288471840297 -1.6402911066231014 0.7321872643968695
lclavicle -2.6583911792945568e-15 -3.2341368239679835e-16
lhumerus -20.8593225306239 -5.7805575421694675 82.55574561722533
lradius 27.737805360233143
lwrist 7.058459150321716
lhand -27.152142497441957 24.253342680274624
lfingers 7.1250199999999975
lthumb -0.5670452092711674 54.23340942738449
rclavicle -2.6583911792945568e-15 -3.2341368239679835e-16
rhumerus -30.821577853711737 -19.412560015006676 -79.73895314948678
rradius 25.09869654249413
rwrist 5.164910002490954
rhand -17.114969705811443 22.784230120457845
rfingers 7.1250199999999975
rthumb 9.12427465448414 -7.000452814945528
53
root 0.631517473562522 17.738565798537124 32.56866096581478 -1.2719045541216778 1.2983752311835208 4.402761431488791
lfemur 14.103157835466178 -2.64362268002289 -29.68033852333091
ltibia 11.017677818917033
lfoot -18.19659812363764 2.9859804243878196
ltoes -2.6885911094213473
rfemur -32.19183338720145 4.583599599386069 14.290446701139162
rtibia 23.096004982426265
rfoot -9.259970108866199 -18.17855727811842
rtoes -1.5265512388693279
lowerback 9.404435847741615 -1.1791564277756144 -5.694933251347915
upperback 0.5114321589011648 -2.1798632135330798 0.8180228702258068
thorax -4.623095268654881 -0.946933094947927 4.280517014939915
lowerneck -16.841267219994236 -2.686503025011871 -3.059593843281955
upperneck 20.062392133524042 -3.441447326932947 2.111531420880061
head 9.107764021600763 -1.6303378749328725 0.7694364895985718
lclavicle -2.287986258392023e-15 -7.635577286256924e-17
lhumerus -18.292275918563817 -6.660867124020361 82.22823356969145
lradius 29.550498225144374
lwrist 8.004996095330807
lhand -27.375547580259465 24.034887121154703
lfingers 7.1250199999999975
lthumb -0.7828104958634773 54.00961905535039
rclavicle -2.287986258392023e-15 -7.635577286256924e-17
rhumerus -31.52649005249559 -20.40062675467501 -78.88775224048692
rradius 24.45587055790701
rwrist 6.269486113417119
rhand -17.116283305595008 23.10841974260144
rfingers 7.1250199999999975
rthumb 9.122989235624615 -6.721365113347085
54
root 0.5419553910309604 17.650856015383113 33.27794287315107 -0.8940598283912318 1.9239517380727715 4.349811896915261
lfemur 17.701911911495756 -3.3552363037667874 -29.271006923331434
ltibia 10.283912234296547
lfoot -17.463052130575836 1.3377859335629416
ltoes -7.452530950663234
rfemur -31.3506977790895 5.74587954103611 14.361912559114783
rtibia 17.489294890799904
rfoot -8.748249799041943 -16.3423509038445
rtoes -2.9875463878479924
lowerback 9.180788882296454 -1.4480636272849794 -5.871870551023712
upperback 0.4725693833939236 -2.5256166696286653 1.033242664307886
thorax -4.513387967875091 -1.1184485274421427 4.644138737358006
lowerneck -16.92823705943056 -2.6653901812689966 -3.068556490169826
upperneck 20.086625665674166 -3.4070868857505787 2.018285365133772
head 9.126516562340962 -1.6164401027753286 0.7452225702115439
lclavicle -2.266782394590727e-15 -6.221557292416273e-17
lhumerus -16.900869626745916 -6.712335412384488 82.07444855682448
lradius 30.671208011457082
lwrist 8.416851764534893
lhand -28.0302284203911 22.995263991977296
lfingers 7.1250199999999975
lthumb -1.4150577439840757 52.96250706982805
rclavicle -2.266782394590727e-15 -6.221557292416273e-17
rhumerus -32.25739262572328 -22.267569207585858 -77.5828176738366
rradius 23.373823616960927
rwrist 7.985456216851276
rhand -17.356838924814717 23.185582113789835
rfingers 7.1250199999999975
rthumb 8.890845905976933 -6.686935214326498
55
root 0.44580349036344263 17.592872607970786 34.013897491610706 -0.9897512967635289 2.0526723372908284 3.5145353704355045
lfemur 19.333672370568877 -4.459483184925292 -28.401888254370007
ltibia 12.962616075738058
lfoot -15.01591319993576 -0.9962547074498925
ltoes -12.83805993731479
rfemur -31.150515438347142 5.517320244029007 16.035893794756763
rtibia 19.195066921055712
rfoot -7.278426687325613 -12.033359572725114
rtoes -2.8712692563614035
lowerback 9.119012823712785 -1.607917337409909 -5.341777911794177
upperback 0.4735944128840999 -2.6482084477592442 1.3996521850840786
thorax -4.482195294159945 -1.191282176093683 4.686514213285133
lowerneck -17.005152346170334 -2.6067606071795018 -3.0396319958802094
upperneck 20.2552678451504 -3.301565115608865 1.7211373616496155
head 9.190704437110933 -1.5842019539815078 0.6674423163319876
lclavicle -2.5132759602295018e-15 -2.2662720167471197e-16
lhumerus -16.814982224675745 -6.041483304047889 82.17121986644067
lradius 31.293758157351235
lwrist 8.41543401254991
lhand -28.908032138958514 21.704501985220638
lfingers 7.1250199999999975
lthumb -2.2627860159075954 51.66286795705207
rclavicle -2.5132759602295018e-15 -2.2662720167471197e-16
rhumerus -33.069270750953066 -24.579012787394685 -76.05707199503054
rradius 22.135114995628477
rwrist 9.976576519670921
rhand -17.61881001399753 23.081842609778906
rfingers 7.1250199999999975
rthumb 8.638061695664994 -6.802073137956489
56
root 0.35690812303898983 17.605674985447862 35.19209429533589 -1.3985873258414823 1.9037992594254058 2.093283004180455
lfemur 19.28432335938262 -5.316769421187603 -26.566253910796107
ltibia 19.650445739508097
lfoot -9.078874831920682 -4.494687839054173
ltoes -16.32865943906576
rfemur -30.56311194512852 4.891026489384048 18.915020166547656
rtibia 24.809534373922148
rfoot -4.934506755897015 -7.4444340503925615
rtoes -0.2390898787671718
lowerback 9.142920293035258 -1.6668612341968232 -4.08806280626871
upperback 0.4713317202938384 -2.5630740287460894 1.921866274774826
thorax -4.504047638842174 -1.171001822609742 4.5515409551575186
lowerneck -16.959208157156045 -2.4868774476742397 -2.9484936305385836
upperneck 20.549485467427548 -3.0941779569120094 1.3060935052845124
head 9.2763042821882 -1.5212101431668075 0.5718567590288524
lclavicle -2.3505338354759127e-15 -1.1806811229997072e-16
lhumerus -17.764710663759622 -4.71885121647745 82.54405998164458
lradius 31.728870224382085
lwrist 8.301742775274311
lhand -29.386701580911705 21.138864539439748
lfingers 7.1250199999999975
lthumb -2.7250612064176 51.091285419094575
rclavicle -2.3505338354759127e-15 -1.1806811229997072e-16
rhumerus -33.863095805208054 -26.790324940223623 -74.40810642854146
rradius 20.98298769496199
rwrist 12.127490688557149
rhand -17.664706674074175 22.883026674829033
rfingers 7.1250199999999975
rthumb 8.593803203848028 -6.992456320600893
57
root 0.2565678842350947 17.688221957654694 35.44093083940267 -2.01084676113775 1.5710776770798032 0.09850885826638578
lfemur 16.200203275032692 -5.6239341292423415 -23.83989785861234
ltibia 29.774312726511376
lfoot 0.28290519025556193 -9.613913821448024
ltoes -15.28801396812866
rfemur -29.021300214222535 4.475074475372108 22.13735970338526
rtibia 29.63056409506951
rfoot -3.527146855715772 -4.25348348731725
rtoes 4.127466389870014
lowerback 9.220178853023555 -1.7061088408555154 -2.4164611088411316
upperback 0.4223257711712891 -2.407064084191391 2.4799148237554403
thorax -4.605113166440542 -1.120364425058662 4.127294832576348
lowerneck -16.77517232495799 -2.3831790555144154 -2.854909848106445
upperneck 20.85660897772106 -2.914418747392154 0.924524329641778
head 9.336537267142042 -1.471772657769384 0.4821075194032596
lclavicle -2.6130966861542226e-15 -2.931986682675715e-16
lhumerus -19.806805510727887 -3.4678555273220164 83.05860539342501
lradius 31.705852431965564
lwrist 7.915113170159961
lhand -29.00731628776619 21.468717056764746
lfingers 7.1250199999999975
lthumb -2.3586637244394675 51.42259922404743
rclavicle -2.6130966861542226e-15 -2.931986682675715e-16
rhumerus -34.57518242230449 -28.534597160754977 -73.18363534812072
rradius 20.017516293558174
rwrist 13.630514822034009
rhand -17.541415361897013 22.61850732595959
rfingers 7.1250199999999975
rthumb 8.712810480390932 -7.210741434936747
58
root 0.14718538921013424 17.81516087667823 35.37942233332326 -2.5849317849915368 1.2690365225972986 -1.891778959121135
lfemur 10.594810025712679 -5.140815296211734 -20.631407399488594
ltibia 41.915402575924986
lfoot 9.782135390440093 -14.373477312410113
ltoes -9.556286168842883
rfemur -25.924657723599733 4.572334399910829 25.04553061261938
rtibia 31.547640574181866
rfoot -4.133618300517711 -3.246887793916139
rtoes 8.046584184493861
lowerback 9.352886752433971 -1.6514288193733972 -0.6884509434343773
upperback 0.37506906734092094 -2.1213452132882744 2.9327651026912083
thorax -4.742273690789366 -1.0078012553239537 3.5439758517403903
lowerneck -16.525281606147193 -2.378496138954148 -2.789544175451525
upperneck 21.079676214356045 -2.90432498700321 0.8246173970799675
head 9.35996186686939 -1.4790213084539432 0.45011286573219866
lclavicle -2.906384328706292e-15 -4.888369269828757e-16
lhumerus -22.04174621445305 -2.9294729884740507 83.65188101376309
lradius 31.111846225021985
lwrist 7.225238041207788
lhand -27.98996973700553 22.22215385673334
lfingers 7.1250199999999975
lthumb -1.3761331237747734 52.18408192002758
rclavicle -2.906384328706292e-15 -4.888369269828757e-16
rhumerus -34.753985766073775 -28.915641309160854 -73.01157812555961
rradius 19.654636752785862
rwrist 13.714459143139134
rhand -17.28286062243504 22.652604968936537
rfingers 7.1250199999999975
rthumb 8.962370377969153 -7.125750964872236
